<?xml version="1.0" standalone="no"?>
<!DOCTYPE svg PUBLIC "-//W3C//DTD SVG 20010904//EN"
 "http://www.w3.org/TR/2001/REC-SVG-20010904/DTD/svg10.dtd">
<svg version="1.0" xmlns="http://www.w3.org/2000/svg"
 width="700.000000pt" height="700.000000pt" viewBox="0 0 700.000000 700.000000"
 preserveAspectRatio="xMidYMid meet">
<metadata>
Created by potrace 1.14, written by Peter Selinger 2001-2017
</metadata>
<g transform="translate(0.000000,700.000000) scale(0.100000,-0.100000)"
fill="#000000" stroke="none">
<path d="M1385 6982 c-390 -27 -756 -207 -1005 -494 -203 -234 -325 -515 -358
-822 -8 -83 -8 -4243 1 -4333 4 -40 9 -78 12 -85 2 -7 7 -31 10 -53 3 -22 19
-85 36 -140 173 -562 659 -960 1249 -1024 83 -9 4333 -8 4365 1 11 3 43 9 70
12 99 14 250 62 380 121 325 149 622 474 740 810 9 28 21 59 25 70 18 45 50
197 58 280 8 87 9 4266 0 4355 -34 366 -231 730 -523 970 -222 182 -461 284
-765 326 -50 7 -4200 13 -4295 6z m1930 -1827 l0 -1470 -1470 0 -1470 0 -1
970 c0 776 2 985 13 1045 65 358 283 654 595 808 128 64 243 96 408 115 14 1
453 2 975 2 l950 0 0 -1470z m2370 1460 c147 -22 331 -96 460 -185 204 -142
378 -388 435 -616 10 -44 22 -92 27 -109 4 -16 9 -478 10 -1026 l4 -996 -1473
1 -1473 1 -1 1465 c0 806 1 1468 3 1471 4 9 1949 3 2008 -6z m-2371 -3305 c2
-8 4 -671 3 -1473 l0 -1458 -996 4 c-548 1 -1009 6 -1026 10 -16 4 -59 15 -95
24 -390 96 -719 435 -799 823 -6 30 -14 66 -18 80 -6 27 -15 1952 -8 1985 4
20 12 20 1470 20 1295 0 1466 -2 1469 -15z m3302 -960 c2 -797 -1 -989 -12
-1053 -72 -403 -356 -730 -746 -861 -42 -14 -93 -28 -114 -32 -22 -3 -57 -9
-79 -14 -22 -5 -479 -8 -1015 -7 l-975 2 -1 1465 c0 806 1 1467 2 1470 1 3
663 5 1471 5 l1468 0 1 -975z"/>
<path d="M1552 6173 c-6 -16 -30 -82 -52 -148 -23 -66 -85 -244 -137 -395 -52
-151 -103 -300 -113 -330 -11 -30 -55 -161 -100 -290 -45 -129 -121 -350 -170
-490 -48 -140 -104 -301 -123 -357 l-36 -103 242 0 243 0 80 243 79 242 386 3
385 2 77 -233 c42 -128 77 -239 77 -245 0 -9 64 -12 246 -12 230 0 246 1 239
18 -10 27 -99 285 -290 842 -29 85 -95 274 -145 420 -51 146 -96 276 -100 290
-31 94 -191 553 -195 560 -4 6 -122 10 -294 10 l-289 0 -10 -27z m328 -523
c122 -367 238 -735 234 -742 -6 -10 -521 -11 -527 0 -7 12 256 803 266 799 5
-1 17 -27 27 -57z"/>
<path d="M5020 6297 c-3 -3 -28 -7 -56 -11 -28 -3 -82 -15 -120 -27 -375 -116
-610 -404 -678 -829 -14 -86 -15 -384 -1 -465 24 -146 91 -327 154 -419 17
-25 31 -47 31 -50 0 -17 124 -144 187 -193 100 -78 274 -157 388 -177 89 -16
118 -19 204 -20 123 -3 215 9 333 43 l66 19 53 -66 c30 -37 61 -76 71 -87 9
-11 23 -28 31 -39 13 -17 30 -19 220 -20 114 0 207 2 207 6 0 5 -67 91 -148
194 l-148 185 40 42 c87 90 151 183 198 292 33 74 74 215 85 287 9 69 10 397
1 468 -44 322 -230 608 -490 749 -145 80 -296 117 -488 120 -74 1 -137 0 -140
-2z m300 -422 c132 -44 228 -130 290 -260 61 -129 82 -236 82 -420 -1 -141
-19 -253 -57 -350 -27 -69 -83 -164 -97 -165 -4 0 -33 34 -65 76 -32 42 -65
86 -75 98 -15 20 -25 21 -208 22 l-191 2 17 -27 c10 -14 67 -91 126 -170 60
-78 112 -149 115 -157 4 -10 -3 -14 -23 -15 -16 -1 -49 -2 -74 -3 -239 -9
-435 139 -509 385 -34 114 -41 166 -41 320 0 64 2 122 4 130 3 8 7 33 10 55
17 136 85 286 165 364 61 58 140 104 221 125 76 21 235 16 310 -10z"/>
<path d="M820 2866 c0 -2 7 -23 16 -47 9 -24 40 -114 69 -199 29 -85 90 -261
135 -390 45 -129 86 -246 90 -260 8 -23 81 -237 298 -865 50 -143 99 -285 109
-315 l19 -55 294 0 293 0 38 110 c21 61 61 178 89 260 29 83 78 227 110 320
32 94 93 269 135 390 42 121 85 245 95 275 15 46 157 457 245 713 l24 67 -250
0 c-249 0 -249 0 -259 -22 -7 -18 -290 -906 -474 -1486 -33 -105 -51 -138 -60
-111 -3 8 -35 109 -71 224 -63 200 -152 479 -235 740 -21 66 -66 208 -100 315
-34 107 -72 227 -84 265 l-23 70 -251 3 c-139 1 -252 1 -252 -2z"/>
<path d="M4822 2753 c-22 -65 -83 -242 -135 -393 -52 -151 -125 -363 -162
-470 -36 -107 -70 -204 -75 -215 -5 -11 -43 -121 -85 -245 -90 -262 -161 -469
-204 -592 -17 -49 -31 -92 -31 -98 0 -6 86 -10 239 -10 l239 0 79 243 79 242
387 2 386 2 79 -242 79 -242 242 -3 242 -2 -6 22 c-4 13 -27 79 -50 148 -24
69 -69 199 -100 290 -31 91 -95 275 -141 410 -47 135 -105 306 -130 380 -25
74 -50 144 -54 155 -4 11 -18 49 -30 85 -12 36 -24 72 -27 80 -3 8 -39 112
-80 230 -41 118 -84 243 -96 278 l-21 62 -292 0 -292 0 -40 -117z m472 -777
c71 -218 126 -399 124 -402 -3 -2 -124 -3 -270 -2 l-265 3 84 255 c45 140 104
321 130 403 26 83 51 146 57 144 6 -2 69 -182 140 -401z"/>
</g>
</svg>
