<svg width="40" height="40" viewBox="0 0 40 40" fill="none" xmlns="http://www.w3.org/2000/svg">
<path d="M20 0C16.0444 0 12.1776 1.17298 8.8886 3.37061C5.59962 5.56823 3.03617 8.69181 1.52242 12.3463C0.00866566 16.0009 -0.387401 20.0222 0.384303 23.9018C1.15601 27.7814 3.06082 31.3451 5.85787 34.1421C8.65492 36.9392 12.2186 38.844 16.0982 39.6157C19.9778 40.3874 23.9992 39.9913 27.6537 38.4776C31.3082 36.9638 34.4318 34.4004 36.6294 31.1114C38.827 27.8224 40 23.9556 40 20C40 14.6957 37.8929 9.60859 34.1421 5.85786C30.3914 2.10714 25.3043 0 20 0V0ZM10 33.9143C10 31.2621 11.0536 28.7186 12.9289 26.8432C14.8043 24.9678 17.3478 23.9143 20 23.9143C22.6522 23.9143 25.1957 24.9678 27.0711 26.8432C28.9464 28.7186 30 31.2621 30 33.9143C27.0907 36.0197 23.5912 37.1531 20 37.1531C16.4088 37.1531 12.9093 36.0197 10 33.9143V33.9143ZM32.7429 31.4286H32.5429C31.9014 28.581 30.3101 26.0364 28.0306 24.2132C25.751 22.3901 22.919 21.3968 20 21.3968C17.0811 21.3968 14.249 22.3901 11.9695 24.2132C9.68991 26.0364 8.0986 28.581 7.45715 31.4286H7.25715C5.04053 28.9654 3.58533 25.9125 3.06764 22.6395C2.54995 19.3665 2.99198 16.0136 4.34021 12.9865C5.68845 9.95947 7.88511 7.38807 10.6643 5.58348C13.4436 3.7789 16.6863 2.81849 20 2.81849C23.3137 2.81849 26.5564 3.7789 29.3357 5.58348C32.1149 7.38807 34.3116 9.95947 35.6598 12.9865C37.008 16.0136 37.4501 19.3665 36.9324 22.6395C36.4147 25.9125 34.9595 28.9654 32.7429 31.4286ZM20 5.71428C18.5873 5.71428 17.2063 6.13321 16.0316 6.91807C14.857 7.70294 13.9415 8.8185 13.4009 10.1237C12.8602 11.4289 12.7188 12.8651 12.9944 14.2506C13.27 15.6362 13.9503 16.909 14.9492 17.9079C15.9482 18.9068 17.2209 19.5871 18.6065 19.8627C19.9921 20.1384 21.4283 19.9969 22.7335 19.4563C24.0386 18.9157 25.1542 18.0001 25.9391 16.8255C26.7239 15.6509 27.1429 14.2699 27.1429 12.8571C27.1429 10.9627 26.3903 9.14592 25.0508 7.80638C23.7112 6.46683 21.8944 5.71428 20 5.71428ZM20 17.1429C19.1524 17.1429 18.3238 16.8915 17.619 16.4206C16.9142 15.9497 16.3649 15.2803 16.0405 14.4972C15.7161 13.7141 15.6313 12.8524 15.7966 12.021C15.962 11.1897 16.3702 10.4261 16.9695 9.82668C17.5689 9.22731 18.3326 8.81914 19.1639 8.65378C19.9953 8.48841 20.857 8.57328 21.6401 8.89766C22.4232 9.22203 23.0925 9.77134 23.5634 10.4761C24.0344 11.1809 24.2857 12.0095 24.2857 12.8571C24.2857 13.9938 23.8342 15.0839 23.0305 15.8876C22.2267 16.6913 21.1366 17.1429 20 17.1429V17.1429Z" fill="#E97CD7"/>
</svg>
