<svg width="320" height="338" viewBox="0 0 320 338" fill="none" xmlns="http://www.w3.org/2000/svg">
<g filter="url(#filter0_f_24:1053)">
<path d="M74.5836 125.879C59.9393 100.717 86.1117 71.5428 112.709 83.3796L127.699 90.0503C139.59 95.3421 153.536 92.3631 162.227 82.675L173.368 70.2565C192.747 48.6546 228.451 64.4152 225.549 93.2901L223.84 110.283C222.545 123.166 229.663 135.427 241.493 140.692L256.939 147.566C283.505 159.389 279.401 198.303 250.954 204.324L235.038 207.693C222.264 210.396 212.706 221.051 211.4 234.042L209.773 250.229C206.864 279.161 168.622 287.45 153.995 262.319L145.49 247.707C138.977 236.516 126.018 230.766 113.35 233.448L96.6419 236.984C68.2504 242.993 48.7201 209.203 68.099 187.601L79.2396 175.182C87.9307 165.494 89.3836 151.307 82.8367 140.059L74.5836 125.879Z" fill="#E97CD7" fill-opacity="0.15"/>
</g>
<defs>
<filter id="filter0_f_24:1053" x="0.3125" y="0.20105" width="334.437" height="337.057" filterUnits="userSpaceOnUse" color-interpolation-filters="sRGB">
<feFlood flood-opacity="0" result="BackgroundImageFix"/>
<feBlend mode="normal" in="SourceGraphic" in2="BackgroundImageFix" result="shape"/>
<feGaussianBlur stdDeviation="30" result="effect1_foregroundBlur_24:1053"/>
</filter>
</defs>
</svg>
