<svg width="40" height="42" viewBox="0 0 40 42" fill="none" xmlns="http://www.w3.org/2000/svg">
<g clip-path="url(#clip0_24:1024)">
<path d="M18.4146 31.4412L18.4846 31.5112L18.5846 31.5912C18.7076 31.69 18.8418 31.774 18.9846 31.8412V31.8412L19.2646 31.9312H19.3646C19.4942 31.9439 19.6249 31.9439 19.7546 31.9312C19.8843 31.9435 20.0148 31.9435 20.1446 31.9312C20.5197 31.8602 20.8667 31.6832 21.1446 31.4212L34.7546 18.4212C34.9817 18.2504 35.1699 18.0331 35.3065 17.7839C35.4431 17.5346 35.525 17.2591 35.5467 16.9757C35.5685 16.6923 35.5296 16.4075 35.4326 16.1403C35.3356 15.8732 35.1828 15.6297 34.9843 15.4262C34.7859 15.2228 34.5463 15.0639 34.2817 14.9603C34.017 14.8567 33.7333 14.8107 33.4494 14.8254C33.1655 14.84 32.8881 14.915 32.6355 15.0454C32.3829 15.1757 32.161 15.3584 31.9846 15.5812L21.8246 25.4412L21.9246 2.27122C21.9205 2.02041 21.8641 1.7732 21.759 1.54546C21.6538 1.31772 21.5022 1.11448 21.3139 0.948764C21.1256 0.783049 20.9047 0.658523 20.6655 0.583174C20.4262 0.507825 20.1738 0.483316 19.9246 0.51122V0.51122C19.6769 0.483439 19.4262 0.507384 19.1883 0.581537C18.9504 0.65569 18.7304 0.778436 18.5424 0.942003C18.3544 1.10557 18.2024 1.30639 18.0961 1.53176C17.9897 1.75712 17.9313 2.00211 17.9246 2.25122L17.8446 25.2512L7.84455 15.5212C7.65611 15.338 7.43342 15.1937 7.18922 15.0966C6.94501 14.9995 6.68406 14.9514 6.42127 14.9551C6.15848 14.9588 5.899 15.0143 5.65763 15.1183C5.41627 15.2223 5.19775 15.3728 5.01455 15.5612C4.83136 15.7497 4.68708 15.9724 4.58994 16.2166C4.49281 16.4608 4.44473 16.7217 4.44844 16.9845C4.45216 17.2473 4.5076 17.5068 4.61159 17.7481C4.71559 17.9895 4.86611 18.208 5.05455 18.3912L18.4146 31.4412Z" fill="#E97CD7"/>
<path d="M38 27.5C37.4696 27.5 36.9609 27.7107 36.5858 28.0858C36.2107 28.4609 36 28.9696 36 29.5V37.5H4V29.5C4 28.9696 3.78929 28.4609 3.41421 28.0858C3.03914 27.7107 2.53043 27.5 2 27.5C1.46957 27.5 0.960859 27.7107 0.585786 28.0858C0.210714 28.4609 0 28.9696 0 29.5L0 39.5C0 40.0304 0.210714 40.5391 0.585786 40.9142C0.960859 41.2893 1.46957 41.5 2 41.5H38C38.5304 41.5 39.0391 41.2893 39.4142 40.9142C39.7893 40.5391 40 40.0304 40 39.5V29.5C40 28.9696 39.7893 28.4609 39.4142 28.0858C39.0391 27.7107 38.5304 27.5 38 27.5Z" fill="#E97CD7"/>
</g>
<defs>
<clipPath id="clip0_24:1024">
<rect width="40" height="41" fill="white" transform="translate(0 0.5)"/>
</clipPath>
</defs>
</svg>
