<svg width="50" height="44" viewBox="0 0 50 44" fill="none" xmlns="http://www.w3.org/2000/svg">
<path fill-rule="evenodd" clip-rule="evenodd" d="M11.9326 25.0609C12.3478 22.0638 14.1162 15.2544 21.6054 8.08839C30.1736 -0.109257 39.0353 -0.526276 44.2495 0.637514C46.7078 1.18668 48.4028 2.1323 49.0561 2.81424C49.4259 3.19947 49.7305 3.79851 49.8815 4.60824C50.1301 5.93597 49.994 7.998 49.411 10.4129C49.1473 11.4931 48.8269 12.5586 48.4513 13.605C48.408 13.7269 48.3457 13.8411 48.2667 13.9435C48.2605 14.0694 48.2338 14.1966 48.1865 14.3206C46.4374 18.8985 43.4098 23.9432 39.1347 27.4147C30.2756 34.61 22.102 33.9218 18.8283 33.2311C18.5871 34.6816 17.9891 37.0161 16.5067 39.7177C15.7962 41.0074 14.9742 42.2322 14.0503 43.378C13.8461 43.6319 13.5509 43.7955 13.2278 43.8336C12.9048 43.8717 12.5797 43.7813 12.3224 43.5818C10.9214 42.4959 10.0742 40.5118 9.64342 38.4797C9.28975 36.8104 9.19652 35.1317 9.17849 34.0689C8.13924 33.8651 6.52193 33.4412 4.90339 32.6003C3.02564 31.6247 1.16158 30.0957 0.109894 27.7612C-0.0130904 27.4876 -0.0335943 27.1786 0.0521412 26.891C0.137877 26.6034 0.324107 26.3565 0.576688 26.1954C2.63468 24.8851 5.13958 24.4874 7.41263 24.5142C9.19279 24.536 10.82 24.8128 11.9326 25.0609ZM47.0696 9.50526C47.4319 7.91385 47.5817 6.52566 47.4953 5.5015C47.4587 5.06827 47.4357 4.72106 47.2635 4.54216C46.7874 4.04473 45.5014 3.47188 43.7094 3.07169C39.0067 2.02197 31.0488 2.49945 23.3215 9.89298C14.2337 18.5881 14.2921 26.6174 14.2921 26.6174C14.2956 26.8159 14.2518 27.0125 14.1643 27.1906C14.0768 27.3687 13.9481 27.5233 13.789 27.6415C13.6298 27.7597 13.4449 27.838 13.2494 27.87C13.054 27.902 12.8538 27.8867 12.6655 27.8254C12.6655 27.8254 10.2494 27.0419 7.3828 27.0076C5.93456 26.9902 4.36138 27.1572 2.94981 27.7569C3.77276 28.9624 4.91519 29.7983 6.04706 30.3862C8.29587 31.5549 10.5385 31.7631 10.5385 31.7631C10.8573 31.7919 11.1528 31.9428 11.3634 32.1846C11.574 32.4263 11.6835 32.7402 11.6691 33.0609C11.6691 33.0609 11.5591 35.5225 12.0756 37.9617C12.2764 38.9092 12.5548 39.8679 13.0067 40.629C13.4867 39.9502 13.9278 39.2447 14.3281 38.5159C16.462 34.6268 16.5055 31.6459 16.5055 31.6459C16.5063 31.4455 16.5554 31.2482 16.6485 31.0709C16.7416 30.8935 16.876 30.7413 17.0403 30.6271C17.2046 30.513 17.3939 30.4402 17.5922 30.4151C17.7905 30.39 17.9919 30.4132 18.1793 30.4828C18.1793 30.4828 27.3381 33.7871 37.5702 25.4773C41.4985 22.287 44.2576 17.635 45.865 13.4286C45.9091 13.3133 45.9682 13.2086 46.0396 13.1157C46.0459 12.9985 46.0689 12.8801 46.1105 12.7641C46.4565 11.8011 46.7516 10.8205 46.9944 9.82628L47.0696 9.50526ZM24.2657 22.8299C23.1655 22.7333 21.8534 22.3138 20.9223 21.044C19.0141 18.4416 20.6712 16.0024 20.6712 16.0024C20.8534 15.7269 21.1371 15.5351 21.4602 15.4692C21.7832 15.4033 22.1191 15.4686 22.3942 15.6508C22.6689 15.8335 22.8601 16.1181 22.9258 16.4421C22.9916 16.766 22.9264 17.1029 22.7447 17.3788C22.7447 17.3788 22.0952 18.4347 22.925 19.5667C23.8741 20.8608 25.6449 20.2829 25.6449 20.2829C25.8819 20.2135 26.1341 20.2164 26.3694 20.2912C26.6047 20.366 26.8125 20.5095 26.9663 20.7032C27.12 20.8969 27.2128 21.1321 27.2327 21.3789C27.2527 21.6256 27.1989 21.8728 27.0783 22.0888C27.0783 22.0888 26.8352 22.537 26.7345 23.136C26.6506 23.6347 26.6537 24.2692 27.1472 24.7779C28.1498 25.8108 29.2724 25.0223 29.2724 25.0223C29.5399 24.8317 29.8717 24.755 30.1954 24.8087C30.5191 24.8625 30.8084 25.0425 31.0004 25.3093C31.1923 25.5762 31.2713 25.9084 31.2201 26.2334C31.1688 26.5584 30.9915 26.8499 30.7268 27.0444C30.7268 27.0444 27.8906 29.1183 25.3652 26.517C24.2508 25.3682 24.096 23.9725 24.2657 22.8299ZM29.0965 15.0132C28.2362 14.9539 27.2685 14.6354 26.4555 13.7266C25.6853 12.8651 25.538 11.8734 25.6642 10.9857C25.8258 9.8481 26.4735 8.92367 26.4735 8.92367C26.6628 8.65302 26.9515 8.46877 27.2762 8.41139C27.6008 8.354 27.935 8.42817 28.2051 8.61761C28.4749 8.80759 28.6585 9.09716 28.7156 9.42275C28.7727 9.74835 28.6987 10.0834 28.5097 10.3543C28.5097 10.3543 28.2959 10.669 28.1778 11.0929C28.097 11.3822 28.033 11.7562 28.3065 12.0616C29.1164 12.9673 30.3147 12.3795 30.3147 12.3795C30.5586 12.2681 30.8319 12.2387 31.0938 12.2957C31.3557 12.3526 31.5922 12.4929 31.7682 12.6956C31.9442 12.8983 32.0502 13.1525 32.0704 13.4205C32.0907 13.6885 32.024 13.9559 31.8804 14.1829C31.8804 14.1829 31.0836 15.3722 31.9146 16.3696C32.2366 16.756 32.7189 16.7405 33.1012 16.6925C33.4336 16.6488 33.7583 16.5587 34.0659 16.425C34.3194 16.3034 34.6066 16.2716 34.8805 16.3346C35.1544 16.3977 35.3989 16.552 35.5742 16.7724C35.7494 16.9927 35.845 17.2662 35.8454 17.548C35.8458 17.8299 35.7509 18.1035 35.5763 18.3244C35.5763 18.3244 34.5159 19.6347 35.672 20.7536C36.0107 21.0814 36.4539 21.0272 36.8001 20.9499C37.288 20.8408 37.6579 20.6214 37.6579 20.6214C37.9392 20.4624 38.2711 20.4192 38.5835 20.5012C38.8959 20.5831 39.1643 20.7837 39.3319 21.0605C39.4995 21.3374 39.5531 21.6687 39.4816 21.9845C39.41 22.3002 39.2187 22.5757 38.9482 22.7526C38.9482 22.7526 37.9426 23.366 36.7473 23.4782C35.8149 23.5661 34.7918 23.3666 33.9453 22.5476C32.7848 21.4243 32.5474 20.22 32.6611 19.2039C31.7238 19.1777 30.7473 18.8567 30.0071 17.9691C29.1847 16.9823 29.0163 15.9164 29.0965 15.0132ZM38.7512 7.04366C38.8542 7.20885 38.989 7.35178 39.1477 7.46408C39.3065 7.57637 39.486 7.65579 39.6757 7.69767C39.8654 7.73955 40.0616 7.74306 40.2527 7.70799C40.4437 7.67292 40.6259 7.59997 40.7886 7.49342C40.9512 7.38687 41.091 7.24886 41.1998 7.08745C41.3086 6.92605 41.3842 6.74451 41.4222 6.55344C41.4602 6.36238 41.4598 6.16564 41.421 5.97474C41.3822 5.78384 41.3059 5.60261 41.1964 5.44166C40.981 5.12486 40.6503 4.90543 40.2753 4.83046C39.9003 4.75549 39.5109 4.83097 39.1908 5.04069C38.8707 5.25041 38.6454 5.57765 38.5632 5.95214C38.481 6.32663 38.5485 6.71852 38.7512 7.04366Z" fill="#E97CD7"/>
</svg>
