<svg width="179" height="317" viewBox="0 0 179 317" fill="none" xmlns="http://www.w3.org/2000/svg">
<path d="M124.48 316.043C94.7432 316.043 70.5386 291.838 70.5386 262.101C70.5386 232.364 94.7432 208.159 124.48 208.159C154.217 208.159 178.422 232.364 178.422 262.101C178.422 291.838 154.563 316.043 124.48 316.043ZM124.48 214.729C98.5468 214.729 77.4542 235.822 77.4542 261.755C77.4542 287.689 98.5468 308.781 124.48 308.781C150.414 308.781 171.506 287.689 171.506 261.755C171.506 235.822 150.76 214.729 124.48 214.729Z" fill="#639FAB"/>
<path d="M159.405 256.569C157.676 256.569 155.947 255.186 155.947 253.457C154.564 235.476 139.695 232.364 139.349 232.364C137.62 232.018 136.237 230.29 136.583 228.215C136.929 226.486 138.658 225.103 140.732 225.449C147.994 226.832 161.825 234.093 163.208 252.765C163.208 254.84 161.825 256.569 159.405 256.569C159.75 256.569 159.75 256.569 159.405 256.569Z" fill="#639FAB"/>
<path d="M33.8865 175.656C15.2143 175.656 0 160.442 0 141.77C0 123.098 15.2143 107.883 33.8865 107.883C52.5586 107.883 67.7729 123.098 67.7729 141.77C67.7729 160.442 52.9044 175.656 33.8865 175.656ZM33.8865 114.799C19.0179 114.799 6.9156 126.901 6.9156 141.77C6.9156 156.638 19.0179 168.741 33.8865 168.741C48.755 168.741 60.8573 156.638 60.8573 141.77C60.8573 126.901 48.755 114.799 33.8865 114.799Z" fill="#639FAB"/>
<path d="M50.829 142.115C49.1001 142.115 47.3712 140.732 47.3712 139.003C47.0254 132.434 41.8387 131.05 41.1472 131.05C39.4183 130.705 38.0352 128.976 38.381 126.901C38.7268 125.172 40.4556 123.789 42.5303 124.135C46.3339 124.826 53.5953 128.63 54.2868 138.312C54.6326 140.387 53.2495 141.77 50.829 142.115C51.1748 142.115 51.1748 142.115 50.829 142.115Z" fill="#639FAB"/>
<path d="M98.2013 76.0716C77.1088 76.0716 60.1655 59.1284 60.1655 38.0358C60.1655 16.9432 77.1088 0 98.2013 0C119.294 0 136.237 16.9432 136.237 38.0358C136.237 59.1284 119.294 76.0716 98.2013 76.0716ZM98.2013 6.5698C80.9123 6.5698 67.0811 20.401 67.0811 37.69C67.0811 54.979 80.9123 68.8102 98.2013 68.8102C115.49 68.8102 129.322 54.979 129.322 37.69C129.667 20.401 115.49 6.5698 98.2013 6.5698Z" fill="#639FAB"/>
<path d="M119.986 35.2697C118.257 35.2697 116.528 33.8866 116.528 32.1577C115.837 24.2048 109.958 22.8217 109.267 22.4759C107.538 22.1301 106.155 20.4012 106.501 18.3265C106.846 16.5976 108.575 15.2145 110.65 15.5603C114.799 16.2519 122.752 20.4012 123.79 31.4662C123.79 33.5409 122.406 35.2697 119.986 35.2697C120.332 35.2697 120.332 35.2697 119.986 35.2697Z" fill="#639FAB"/>
</svg>
