<svg width="164" height="159" viewBox="0 0 164 159" fill="none" xmlns="http://www.w3.org/2000/svg">
<g filter="url(#filter0_d_4:146)">
<path d="M113.498 4H30.3512C15.7979 4 4 15.7979 4 30.3512V113.498C4 128.052 15.7979 139.849 30.3512 139.849H113.498C128.052 139.849 139.849 128.052 139.849 113.498V30.3512C139.849 15.7979 128.052 4 113.498 4Z" stroke="#E97CD7" stroke-width="7.35818" stroke-miterlimit="10"/>
<path d="M71.9248 4V139.849" stroke="#E97CD7" stroke-width="7.35818" stroke-miterlimit="10"/>
<path d="M4 71.9247H139.849" stroke="#E97CD7" stroke-width="7.35818" stroke-miterlimit="10"/>
<path d="M26.8766 60.4846H16.9021L32.1004 16.4621H44.0948L59.2711 60.4846H49.2966L38.2689 26.5213H37.9245L26.8766 60.4846ZM26.2542 43.1761H49.8122V50.4401H26.2542V43.1761Z" fill="#E97CD7"/>
<path d="M126.574 36.969C126.574 41.7687 125.667 45.8528 123.854 49.2212C122.041 52.5896 119.577 55.1582 116.461 56.9271C113.344 58.6973 109.846 59.5823 105.965 59.5823C102.053 59.5823 98.5424 58.6936 95.433 56.9161C92.3236 55.1386 89.8685 52.5663 88.0677 49.1991C86.2608 45.8331 85.3579 41.7564 85.3591 36.969C85.3604 32.1815 86.2632 28.0975 88.0677 24.7168C89.8722 21.3484 92.3273 18.7797 95.433 17.0108C98.5387 15.2419 102.05 14.3569 105.965 14.3557C109.848 14.3557 113.347 15.2407 116.461 17.0108C119.575 18.781 122.04 21.3496 123.854 24.7168C125.668 28.0852 126.575 32.1693 126.574 36.969ZM117.137 36.969C117.137 33.8584 116.675 31.2357 115.75 29.101C114.826 26.9663 113.525 25.3471 111.848 24.2436C110.173 23.1388 108.209 22.5864 105.956 22.5864C103.704 22.5864 101.74 23.1388 100.064 24.2436C98.3884 25.3484 97.0878 26.9675 96.1622 29.101C95.2366 31.2345 94.7751 33.8572 94.7775 36.969C94.7775 40.0784 95.2397 42.701 96.164 44.837C97.0884 46.9729 98.389 48.5921 100.066 49.6944C101.743 50.7992 103.707 51.3516 105.958 51.3516C108.209 51.3516 110.173 50.7992 111.85 49.6944C113.527 48.5896 114.828 46.9705 115.752 44.837C116.676 42.7035 117.138 40.0808 117.137 36.969ZM102.736 43.6751H110.653L114.629 48.7922L118.531 53.3476L125.896 62.5911H117.223L112.15 56.3582L109.549 52.6608L102.736 43.6751Z" fill="#E97CD7"/>
<path d="M27.1877 84.9595L37.8287 118.407H38.2375L48.8988 84.9595H59.2102L44.0414 128.982H32.047L16.8486 84.9595H27.1877Z" fill="#E97CD7"/>
<path d="M94.8032 128.982H84.8342L100.033 84.9595H112.027L127.203 128.982H117.223L106.194 95.0187H105.849L94.8032 128.982ZM94.1808 111.673H117.739V118.938H94.1808V111.673Z" fill="#E97CD7"/>
</g>
<defs>
<filter id="filter0_d_4:146" x="0.320801" y="0.320923" width="163.208" height="158.208" filterUnits="userSpaceOnUse" color-interpolation-filters="sRGB">
<feFlood flood-opacity="0" result="BackgroundImageFix"/>
<feColorMatrix in="SourceAlpha" type="matrix" values="0 0 0 0 0 0 0 0 0 0 0 0 0 0 0 0 0 0 127 0" result="hardAlpha"/>
<feOffset dx="15" dy="10"/>
<feGaussianBlur stdDeviation="2.5"/>
<feComposite in2="hardAlpha" operator="out"/>
<feColorMatrix type="matrix" values="0 0 0 0 0.913725 0 0 0 0 0.486275 0 0 0 0 0.843137 0 0 0 0.5 0"/>
<feBlend mode="normal" in2="BackgroundImageFix" result="effect1_dropShadow_4:146"/>
<feBlend mode="normal" in="SourceGraphic" in2="effect1_dropShadow_4:146" result="shape"/>
</filter>
</defs>
</svg>
