<svg width="144" height="144" viewBox="0 0 144 144" fill="none" xmlns="http://www.w3.org/2000/svg">
<path d="M113.498 4H30.3512C15.7979 4 4 15.7979 4 30.3512V113.498C4 128.052 15.7979 139.849 30.3512 139.849H113.498C128.052 139.849 139.849 128.052 139.849 113.498V30.3512C139.849 15.7979 128.052 4 113.498 4Z" stroke="#E97CD7" stroke-width="7.35818" stroke-miterlimit="10"/>
<path d="M71.9247 4V139.849" stroke="#E97CD7" stroke-width="7.35818" stroke-miterlimit="10"/>
<path d="M4 71.9247H139.849" stroke="#E97CD7" stroke-width="7.35818" stroke-miterlimit="10"/>
<path d="M26.8767 60.4846H16.9022L32.1005 16.4621H44.095L59.2712 60.4846H49.2967L38.269 26.5213H37.9247L26.8767 60.4846ZM26.2543 43.1761H49.8123V50.4401H26.2543V43.1761Z" fill="#E97CD7"/>
<path d="M126.573 36.969C126.573 41.7687 125.667 45.8528 123.854 49.2212C122.041 52.5896 119.576 55.1582 116.461 56.9271C113.344 58.6973 109.846 59.5823 105.965 59.5823C102.053 59.5823 98.5423 58.6936 95.4329 56.9161C92.3235 55.1386 89.8684 52.5663 88.0676 49.1991C86.2606 45.8331 85.3578 41.7564 85.359 36.969C85.3602 32.1815 86.2631 28.0975 88.0676 24.7168C89.8721 21.3484 92.3272 18.7797 95.4329 17.0108C98.5386 15.2419 102.049 14.3569 105.965 14.3557C109.848 14.3557 113.347 15.2407 116.461 17.0108C119.575 18.781 122.039 21.3496 123.854 24.7168C125.668 28.0852 126.575 32.1693 126.573 36.969ZM117.137 36.969C117.137 33.8584 116.674 31.2357 115.75 29.101C114.826 26.9663 113.525 25.3471 111.848 24.2436C110.173 23.1388 108.209 22.5864 105.956 22.5864C103.704 22.5864 101.739 23.1388 100.064 24.2436C98.3883 25.3484 97.0877 26.9675 96.1621 29.101C95.2365 31.2345 94.775 33.8572 94.7774 36.969C94.7774 40.0784 95.2396 42.701 96.1639 44.837C97.0883 46.9729 98.3889 48.5921 100.066 49.6944C101.743 50.7992 103.707 51.3516 105.958 51.3516C108.209 51.3516 110.173 50.7992 111.85 49.6944C113.527 48.5896 114.828 46.9705 115.752 44.837C116.676 42.7035 117.138 40.0808 117.137 36.969ZM102.736 43.6751H110.653L114.629 48.7922L118.531 53.3476L125.896 62.5911H117.223L112.15 56.3582L109.549 52.6608L102.736 43.6751Z" fill="#E97CD7"/>
<path d="M27.1878 84.9595L37.8288 118.407H38.2376L48.8989 84.9595H59.2103L44.0415 128.982H32.0471L16.8488 84.9595H27.1878Z" fill="#E97CD7"/>
<path d="M94.8032 128.982H84.8342L100.033 84.9595H112.027L127.203 128.982H117.223L106.194 95.0187H105.849L94.8032 128.982ZM94.1808 111.673H117.739V118.938H94.1808V111.673Z" fill="#E97CD7"/>
</svg>
