<svg width="179" height="286" viewBox="0 0 179 286" fill="none" xmlns="http://www.w3.org/2000/svg">
<path d="M126.125 209.25C97.3895 209.25 74 185.861 74 157.125C74 128.39 97.3895 105 126.125 105C154.861 105 178.25 128.39 178.25 157.125C178.25 185.861 155.195 209.25 126.125 209.25ZM126.125 111.349C101.065 111.349 80.6827 131.731 80.6827 156.791C80.6827 181.851 101.065 202.233 126.125 202.233C151.185 202.233 171.568 181.851 171.568 156.791C171.568 131.731 151.519 111.349 126.125 111.349Z" fill="#639FAB"/>
<path d="M160.105 157.124C158.434 157.124 156.763 155.787 156.763 154.117C155.427 136.741 141.059 133.734 140.725 133.734C139.054 133.4 137.717 131.73 138.052 129.725C138.386 128.054 140.056 126.717 142.061 127.052C149.078 128.388 162.443 135.405 163.78 153.448C163.78 155.453 162.443 157.124 160.105 157.124C160.439 157.124 160.439 157.124 160.105 157.124Z" fill="#639FAB"/>
<path d="M32.7453 285.491C14.702 285.491 0 270.789 0 252.745C0 234.702 14.702 220 32.7453 220C50.7886 220 65.4906 234.702 65.4906 252.745C65.4906 270.789 51.1228 285.491 32.7453 285.491ZM32.7453 226.683C18.3775 226.683 6.68271 238.378 6.68271 252.745C6.68271 267.113 18.3775 278.808 32.7453 278.808C47.1131 278.808 58.8079 267.113 58.8079 252.745C58.8079 238.378 47.1131 226.683 32.7453 226.683Z" fill="#639FAB"/>
<path d="M49.1175 253.079C47.4468 253.079 45.7762 251.743 45.7762 250.072C45.442 243.724 40.43 242.387 39.7617 242.387C38.091 242.053 36.7545 240.382 37.0887 238.377C37.4228 236.707 39.0935 235.37 41.0983 235.704C44.7738 236.373 51.7906 240.048 52.4589 249.404C52.793 251.409 51.4565 252.745 49.1175 253.079C49.4516 253.079 49.4516 253.079 49.1175 253.079Z" fill="#639FAB"/>
<path d="M101.477 73.5098C81.0943 73.5098 64.7217 57.1372 64.7217 36.7549C64.7217 16.3726 81.0943 0 101.477 0C121.859 0 138.232 16.3726 138.232 36.7549C138.232 57.1372 121.859 73.5098 101.477 73.5098ZM101.477 6.34856C84.7698 6.34856 71.4044 19.714 71.4044 36.4208C71.4044 53.1275 84.7698 66.493 101.477 66.493C118.183 66.493 131.549 53.1275 131.549 36.4208C131.883 19.714 118.183 6.34856 101.477 6.34856Z" fill="#639FAB"/>
<path d="M122.527 34.082C120.856 34.082 119.186 32.7454 119.186 31.0748C118.518 23.3896 112.837 22.0531 112.169 21.719C110.498 21.3849 109.162 19.7141 109.496 17.7093C109.83 16.0387 111.501 14.7022 113.505 15.0363C117.515 15.7046 125.2 19.7142 126.203 30.4065C126.203 32.4114 124.866 34.082 122.527 34.082C122.861 34.082 122.861 34.082 122.527 34.082Z" fill="#639FAB"/>
</svg>
