<svg width="300" height="563" viewBox="0 0 300 563" fill="none" xmlns="http://www.w3.org/2000/svg">
<path d="M150 131.833C67.6157 131.833 0.59375 198.855 0.59375 281.24C0.59375 363.624 67.6157 430.646 150 430.646C232.385 430.646 299.406 363.624 299.406 281.24C299.406 198.855 232.385 131.833 150 131.833ZM150 149.411C222.691 149.411 281.829 208.549 281.829 281.24C281.829 285.309 281.583 289.325 281.223 293.298C273.876 293.122 267.082 289.958 262.081 284.246C258.742 280.431 252.185 280.431 248.846 284.246C238.563 296.005 219.632 296.005 209.35 284.246C206.01 280.431 199.454 280.431 196.114 284.246C185.831 296.005 166.901 296.005 156.618 284.246C153.278 280.431 146.722 280.431 143.382 284.246C133.1 296.005 114.169 296.005 103.886 284.246C100.547 280.431 93.9903 280.431 90.6506 284.246C80.368 296.005 61.4373 296.005 51.1546 284.246C47.815 280.431 41.2586 280.431 37.919 284.246C32.9183 289.958 26.1335 293.131 18.7774 293.298C18.4171 289.325 18.171 285.309 18.171 281.24C18.171 208.549 77.3095 149.411 150 149.411ZM150 413.069C87.434 413.069 35.0099 369.223 21.5985 310.664C29.9125 309.996 37.8838 307.061 44.5368 301.999C59.6971 313.52 82.1081 313.52 97.2685 301.999C112.429 313.52 134.84 313.52 150 301.999C165.16 313.52 187.571 313.52 202.732 301.999C217.892 313.52 240.303 313.52 255.463 301.999C262.125 307.061 270.096 309.996 278.402 310.664C264.99 369.223 212.566 413.069 150 413.069Z" fill="#639FAB"/>
<path d="M167.578 263.662C172.429 263.662 176.366 259.734 176.366 254.874C176.366 250.022 180.312 246.085 185.155 246.085C189.997 246.085 193.944 250.022 193.944 254.874C193.944 259.734 197.881 263.662 202.732 263.662C207.583 263.662 211.521 259.734 211.521 254.874C211.521 250.022 215.467 246.085 220.309 246.085C225.152 246.085 229.098 250.022 229.098 254.874C229.098 259.734 233.035 263.662 237.887 263.662C242.738 263.662 246.675 259.734 246.675 254.874C246.675 240.337 234.846 228.508 220.309 228.508C213.56 228.508 207.399 231.057 202.732 235.24C198.065 231.057 191.905 228.508 185.155 228.508C170.619 228.508 158.789 240.337 158.789 254.874C158.789 259.734 162.726 263.662 167.578 263.662Z" fill="#639FAB"/>
<path d="M158.789 333.972C148.128 333.972 138.812 337.434 132.423 342.883C126.034 337.434 116.718 333.972 106.057 333.972C101.206 333.972 97.2686 337.9 97.2686 342.76V377.915C97.2686 382.775 101.206 386.703 106.057 386.703C116.718 386.703 126.025 383.241 132.423 377.792C138.821 383.241 148.128 386.703 158.789 386.703C178.502 386.703 193.943 375.129 193.943 360.338C193.943 345.546 178.502 333.972 158.789 333.972ZM114.846 367.825V352.858C120.383 354.634 123.634 357.868 123.634 360.346C123.634 362.807 120.383 366.041 114.846 367.825ZM158.789 369.126C148.058 369.126 141.212 363.923 141.212 360.338C141.212 356.752 148.058 351.549 158.789 351.549C169.52 351.549 176.366 356.752 176.366 360.338C176.366 363.923 169.52 369.126 158.789 369.126Z" fill="#639FAB"/>
<path d="M88.4798 219.719H123.634C138.171 219.719 150 207.89 150 193.354C150 178.817 138.171 166.988 123.634 166.988C109.098 166.988 97.2684 178.817 97.2684 193.354C97.2684 196.456 97.9012 199.383 98.8943 202.142H88.4798C83.6285 202.142 79.6912 206.071 79.6912 210.931C79.6912 215.791 83.6285 219.719 88.4798 219.719ZM114.846 193.354C114.846 188.502 118.792 184.565 123.634 184.565C128.477 184.565 132.423 188.502 132.423 193.354C132.423 198.205 128.477 202.142 123.634 202.142C118.792 202.142 114.846 198.205 114.846 193.354Z" fill="#639FAB"/>
<path d="M53.3255 246.085H114.846C119.697 246.085 123.634 242.157 123.634 237.296C123.634 232.436 119.697 228.508 114.846 228.508H53.3255C48.4742 228.508 44.5369 232.436 44.5369 237.296C44.5369 242.157 48.4742 246.085 53.3255 246.085Z" fill="#639FAB"/>
<path d="M201.485 456.314L166.198 491.591C166.972 489.113 167.394 486.476 167.394 483.743C167.394 469.207 155.564 457.377 141.028 457.377H70.7188C63.6791 457.377 57.0613 460.119 52.21 464.962L12.09 503.386C10.385 505.029 9.40948 507.279 9.38312 509.643C9.35675 511.998 10.2795 514.275 11.9582 515.953L55.9012 559.896C57.615 561.61 59.8649 562.471 62.1148 562.471C64.3647 562.471 66.6145 561.61 68.3283 559.896L83.3305 544.894H176.367C183.406 544.894 190.033 542.152 194.999 537.187L238.766 493.595C249.048 483.312 249.049 466.596 238.775 456.314C228.817 446.356 211.433 446.356 201.485 456.314ZM226.356 481.15L182.589 524.742C180.946 526.385 178.678 527.317 176.367 527.317H79.692C77.363 527.317 75.1219 528.24 73.4784 529.892L62.1148 541.256L30.7394 509.88L64.5053 477.53C66.14 475.886 68.4074 474.954 70.7188 474.954H141.028C145.87 474.954 149.816 478.892 149.816 483.743C149.816 488.594 145.87 492.532 141.028 492.532H123.82C118.968 492.532 115.031 496.46 115.031 501.32C115.031 506.18 118.968 510.109 123.82 510.109H141.028H168.896C171.225 510.109 173.466 509.177 175.11 507.534L213.912 468.741C217.225 465.41 223.017 465.41 226.339 468.741C229.766 472.168 229.766 477.74 226.356 481.15Z" fill="#639FAB"/>
<path d="M79.8751 114.254C86.9236 114.254 93.5414 111.512 98.5157 106.529L133.802 71.2514C133.02 73.7386 132.607 76.3752 132.607 79.0997C132.607 93.636 144.436 105.465 158.973 105.465H229.281C236.321 105.465 242.939 102.723 247.817 97.8458L287.937 59.0529C289.624 57.4094 290.591 55.1683 290.617 52.8129C290.635 50.4488 289.703 48.1901 288.042 46.5203L244.099 2.57726C240.663 -0.859087 235.108 -0.859087 231.672 2.57726L216.67 17.5794H123.818C116.778 17.5794 110.161 20.3302 105.178 25.3046L61.2345 69.2476C50.9518 79.5303 50.9518 96.2463 61.2345 106.529C66.2088 111.512 72.8266 114.254 79.8751 114.254ZM73.6616 81.6747L117.605 37.7317C119.248 36.0882 121.507 35.1566 123.818 35.1566H220.308C222.637 35.1566 224.87 34.2338 226.522 32.5816L237.885 21.2179L269.296 52.6284L235.495 85.3132C233.86 86.9567 231.593 87.8883 229.281 87.8883H158.973C154.13 87.8883 150.184 83.951 150.184 79.0997C150.184 74.2484 154.13 70.3111 158.973 70.3111H176.181C181.032 70.3111 184.969 66.3826 184.969 61.5225C184.969 56.6624 181.032 52.7338 176.181 52.7338H131.104C128.775 52.7338 126.534 53.6654 124.89 55.3089L86.0887 94.1018C82.7754 97.4327 76.9837 97.4327 73.6704 94.1018C70.234 90.6743 70.234 85.1023 73.6616 81.6747Z" fill="#639FAB"/>
</svg>
