<svg width="287" height="291" viewBox="0 0 287 291" fill="none" xmlns="http://www.w3.org/2000/svg">
<path d="M19.751 75.7824C5.10665 50.6212 31.2791 21.4466 57.8767 33.2833L98.4042 51.3192C110.295 56.611 124.242 53.632 132.933 43.9439L162.644 10.8248C182.023 -10.7771 217.727 4.98353 214.824 33.8584L210.329 78.5758C209.034 91.4594 216.151 103.72 227.981 108.985L268.966 127.224C295.532 139.047 291.428 177.962 262.98 183.982L219.804 193.121C207.03 195.824 197.472 206.479 196.166 219.47L191.752 263.381C188.844 292.313 150.601 300.603 135.974 275.472L113.408 236.7C106.895 225.509 93.9364 219.76 81.2685 222.441L37.2998 231.747C8.9083 237.756 -10.622 203.966 8.75691 182.364L38.4679 149.245C47.159 139.557 48.6119 125.37 42.0649 114.121L19.751 75.7824Z" fill="#E97CD7" fill-opacity="0.5"/>
</svg>
